:SAMPLES-PER-SECOND 30
:FULLY-SPECIFIED
:DEGREES
532
root  -51.9824 40.0106 0.719314 104.519 83.6414 105.171
RightUpLeg  -23.7303 -4.53052 -8.61409
RightLeg  61.7621 -1.73877 -4.034
RightFoot  6.19673 -0.809115 5.49627
RightToes  -4.65663e-010 0 -3.6325e-017
Spine  17.611 -0.00369835 -2.16245
Spine1  8.18765 -0.0183586 -1.38589
HEad  3.43548 -0.348454 -2.55479
LeftShoulder1  7.98038 -11.8441 -45.3184
LeftArm  -4.98568 9.26317 -25.7787
LeftForeArm  43.4149 -8.61754 -6.67576
LeftHand  -0.244104 0.0205437 5.32207
RightShoulder  4.27745 6.91001 35.1069
RightArm  9.26753 -13.555 37.785
RightForeArm  4.04216 22.4972 4.77511
RightHand  -1.5372 4.94107 -17.4329
LeftUpLeg  -5.78387 10.891 -10.3492
LeftLeg  18.5231 8.7043 2.03312
LeftFoot  -14.5954 0.130951 1.50214
LeftToes  -5.82109e-011 -4.83791e-012 -1.00937e-011
533
root  -50.6656 40.0979 0.656516 103.549 84.4557 104.134
RightUpLeg  -27.1649 -4.00152 -7.20096
RightLeg  55.3294 -3.2061 -5.36238
RightFoot  4.38137 -0.560088 4.26574
RightToes  -4.65663e-010 0 -3.6325e-017
Spine  19.0461 -0.191293 -1.83886
Spine1  7.57029 -0.363429 -0.814705
HEad  2.75683 0.25855 -2.64414
LeftShoulder1  7.94438 -11.8147 -45.196
LeftArm  -4.51634 7.89023 -27.3986
LeftForeArm  42.7676 -10.2091 -6.53394
LeftHand  -0.244104 0.0205437 5.32207
RightShoulder  4.59362 7.60314 35.3882
RightArm  10.5503 -15.9424 38.0687
RightForeArm  3.70073 21.9884 4.84618
RightHand  -1.58824 5.07157 -17.7815
LeftUpLeg  -2.67954 8.40769 -8.79042
LeftLeg  16.8676 11.2837 1.01129
LeftFoot  -15.775 0.141922 1.22726
LeftToes  -5.82109e-011 -4.83791e-012 -1.00937e-011
534
root  -49.3013 40.0906 0.605805 103.807 84.8527 104.455
RightUpLeg  -28.9142 -4.43662 -6.00933
RightLeg  46.0405 -5.21416 -6.07769
RightFoot  1.88842 -0.472117 4.21835
RightToes  -4.65663e-010 0 -3.6325e-017
Spine  20.46 -0.421653 -2.4725
Spine1  7.29619 -1.10767 0.663559
HEad  1.76042 1.22744 -2.83659
LeftShoulder1  7.99022 -11.8342 -45.4063
LeftArm  -2.65445 6.51829 -28.4757
LeftForeArm  40.6829 -12.9454 -6.08627
LeftHand  -0.244104 0.0205437 5.32207
RightShoulder  4.89172 8.28275 35.5321
RightArm  10.7855 -17.6796 38.2727
RightForeArm  4.76341 21.3398 4.9075
RightHand  -1.44947 4.7377 -16.7787
LeftUpLeg  0.557469 6.31508 -7.86785
LeftLeg  15.258 13.1229 0.0504393
LeftFoot  -17.1143 0.136571 0.678651
LeftToes  -5.82109e-011 -4.83791e-012 -1.00937e-011
535
root  -47.8546 39.9365 0.564847 106.208 84.7584 106.609
RightUpLeg  -29.8719 -6.68175 -4.77138
RightLeg  35.1675 -6.54609 -5.2177
RightFoot  -0.300459 -0.53193 5.45907
RightToes  -4.65663e-010 0 -3.6325e-017
Spine  21.3003 -0.746279 -3.64651
Spine1  7.60546 -2.08218 2.31127
HEad  0.209023 2.17211 -3.02962
LeftShoulder1  8.13094 -11.9814 -45.7806
LeftArm  0.754622 4.95854 -28.9828
LeftForeArm  37.4986 -16.7501 -5.00847
LeftHand  -0.244104 0.0205437 5.32207
RightShoulder  5.076 8.73692 35.4983
RightArm  9.74392 -18.7071 38.7022
RightForeArm  6.79172 20.8363 4.9129
RightHand  -1.24054 3.97673 -15.5547
LeftUpLeg  3.24001 5.11064 -7.64121
LeftLeg  14.3414 14.1288 -0.5494
LeftFoot  -18.7321 0.133923 0.318519
LeftToes  -5.82109e-011 -4.83791e-012 -1.00937e-011
536
root  -46.313 39.6463 0.51412 106.468 84.3807 106.382
RightUpLeg  -30.9796 -10.5296 -2.82497
RightLeg  25.1967 -5.98681 -3.30642
RightFoot  -1.27195 -0.517067 5.75728
RightToes  -4.65663e-010 0 -3.6325e-017
Spine  21.8269 -0.990304 -4.65975
Spine1  8.08975 -2.83367 3.495
HEad  -1.67043 2.72974 -3.16636
LeftShoulder1  8.28348 -12.2165 -45.9492
LeftArm  3.71056 3.10886 -29.399
LeftForeArm  35.0899 -20.6983 -3.69992
LeftHand  -0.244104 0.0205437 5.32207
RightShoulder  5.12315 8.88166 35.3962
RightArm  7.72995 -19.2939 39.2658
RightForeArm  7.43119 20.3039 4.99476
RightHand  -1.02949 2.60797 -15.1032
LeftUpLeg  5.62927 4.44738 -7.85877
LeftLeg  13.8206 14.7665 -1.01676
LeftFoot  -20.6213 0.149107 0.314184
LeftToes  -5.82109e-011 -4.83791e-012 -1.00937e-011
537
root  -44.6965 39.2329 0.445028 104.665 83.9073 104.44
RightUpLeg  -32.2048 -14.5006 -0.459871
RightLeg  18.9898 -4.18542 -1.78935
RightFoot  -2.16627 -0.507398 6.15573
RightToes  -4.65663e-010 0 -3.6325e-017
Spine  22.7983 -1.05018 -5.34092
Spine1  8.36388 -3.33758 4.52342
HEad  -3.50973 2.90723 -3.51384
LeftShoulder1  8.43534 -12.4686 -46.0568
LeftArm  3.81583 0.92766 -29.8981
LeftForeArm  35.0676 -23.8406 -3.26144
LeftHand  -0.244104 0.0205437 5.32207
RightShoulder  5.07706 8.80546 35.2799
RightArm  4.1896 -19.4613 39.6588
RightForeArm  6.8747 19.1118 5.29751
RightHand  -0.841648 1.06138 -15.2333
LeftUpLeg  8.41497 4.37263 -8.21344
LeftLeg  13.5992 14.5197 -1.34363
LeftFoot  -23.0211 0.106577 -0.288002
LeftToes  -5.82109e-011 -4.83791e-012 -1.00937e-011
538
root  -43.0137 38.7358 0.350384 106.099 83.6804 106.099
RightUpLeg  -33.2469 -16.7644 1.3183
RightLeg  18.0515 -3.64558 -1.53187
RightFoot  -3.40467 -0.52386 7.19032
RightToes  -4.65663e-010 0 -3.6325e-017
Spine  24.1931 -1.20066 -5.2713
Spine1  8.58122 -3.9245 5.75827
HEad  -5.23093 2.8834 -4.34636
LeftShoulder1  8.63325 -12.7156 -46.431
LeftArm  1.23517 -1.4532 -30.4134
LeftForeArm  36.8385 -26.1639 -3.66022
LeftHand  -0.244104 0.0205437 5.32207
RightShoulder  5.00057 8.68158 35.0751
RightArm  -1.03608 -19.095 39.7531
RightForeArm  7.08524 17.3378 5.62066
RightHand  -0.866096 1.00567 -15.7853
LeftUpLeg  11.4584 5.12499 -8.19067
LeftLeg  14.0202 13.2491 -1.0084
LeftFoot  -25.4854 -0.0106858 -1.33105
LeftToes  -5.82109e-011 -4.83791e-012 -1.00937e-011
539
root  -41.2481 38.2309 0.214776 114.207 84.1316 114.056
RightUpLeg  -34.4245 -17.191 2.71927
RightLeg  21.5772 -5.12279 -2.45658
RightFoot  -3.93252 -0.419635 6.10061
RightToes  -4.65663e-010 0 -3.6325e-017
Spine  25.3473 -1.81335 -3.57805
Spine1  8.81614 -4.65653 6.82379
HEad  -7.00007 2.78098 -5.55939
LeftShoulder1  8.84972 -12.9018 -47.0716
LeftArm  -2.51257 -3.51968 -31.0886
LeftForeArm  39.1734 -28.538 -4.06115
LeftHand  -0.244104 0.0205437 5.32207
RightShoulder  4.93492 8.60256 34.8054
RightArm  -5.6854 -18.2624 39.4352
RightForeArm  7.42705 16.0288 5.65766
RightHand  -1.22732 2.9716 -17.1271
LeftUpLeg  13.8363 6.60811 -7.28781
LeftLeg  15.2286 11.5334 0.319853
LeftFoot  -27.3613 -0.0843877 -1.77832
LeftToes  -5.82109e-011 -4.83791e-012 -1.00937e-011
540
root  -39.3693 37.7606 0.0351813 129.075 85.2439 128.048
RightUpLeg  -36.2251 -16.5993 4.50238
RightLeg  27.7675 -6.93332 -4.17775
RightFoot  -3.78145 -0.138494 1.69193
RightToes  -4.65663e-010 0 -3.6325e-017
Spine  26.2195 -2.83872 -0.00219186
Spine1  8.64432 -5.16171 7.18271
HEad  -9.01973 2.63246 -6.81931
LeftShoulder1  9.01698 -12.9746 -47.762
LeftArm  -6.46886 -4.67698 -32.2034
LeftForeArm  40.7843 -31.435 -4.62922
LeftHand  -0.244104 0.0205437 5.32207
RightShoulder  4.92864 8.61225 34.7224
RightArm  -7.65678 -17.0602 38.4108
RightForeArm  5.65895 15.8518 5.59606
RightHand  -1.74458 5.17882 -19.2816
LeftUpLeg  15.2401 8.68611 -5.2069
LeftLeg  17.1136 8.89825 1.85641
LeftFoot  -28.8726 -0.291603 -2.97066
LeftToes  -5.82109e-011 -4.83791e-012 -1.00937e-011
541
root  -37.3767 37.2954 -0.15669 148.495 86.6269 146.346
RightUpLeg  -38.2878 -15.0154 6.13921
RightLeg  35.264 -7.99175 -6.28446
RightFoot  -5.05324 0.124742 -2.98929
RightToes  -4.65663e-010 0 -3.6325e-017
Spine  27.4549 -3.85575 4.53268
Spine1  7.81838 -5.05653 6.76972
HEad  -11.3885 2.40063 -7.90338
LeftShoulder1  9.14837 -13.0431 -48.2632
LeftArm  -9.07213 -4.85426 -33.7753
LeftForeArm  38.8735 -33.9728 -5.33042
LeftHand  -0.244104 0.0205437 5.32207
RightShoulder  5.05931 8.83137 35.0522
RightArm  -7.83281 -15.4262 36.6797
RightForeArm  2.26604 16.5106 5.57551
RightHand  -2.17107 6.44332 -21.3857
LeftUpLeg  15.811 11.0132 -2.17241
LeftLeg  20.6565 5.01165 2.41072
LeftFoot  -29.4898 -0.980103 -7.28001
LeftToes  -5.82109e-011 -4.83791e-012 -1.00937e-011
